<svg id="a6a7f2ca-52ca-4002-9202-494ecaeca704" data-name="Camada 2" xmlns="http://www.w3.org/2000/svg" viewBox="0 0 1080 1080"><defs><style>.ec609e75-fa65-4930-940b-328e97c096c6{fill:#cc2929;}</style></defs><path class="ec609e75-fa65-4930-940b-328e97c096c6" d="M646.87,886.34h0"/><path class="ec609e75-fa65-4930-940b-328e97c096c6" d="M655.3,604.89A164,164,0,0,1,685,562.62l-26.52-72.43a239.42,239.42,0,0,0-27.11,24.86l-17.18-16a257.73,257.73,0,0,0-42,59.35l21.13,10.82a236.46,236.46,0,0,0-14.68,35.7Z"/><path class="ec609e75-fa65-4930-940b-328e97c096c6" d="M1042.79,674.13l22.21-.31a259.61,259.61,0,0,0-11.22-71.41l-21,6.32a236.54,236.54,0,0,0-27.65-60l18.32-11.8a262.3,262.3,0,0,0-47-54.79l-14.5,16.53-.87-.76a238.49,238.49,0,0,0-54.41-35.58l9.45-20a260.82,260.82,0,0,0-53.29-18.53c-5.22-1.21-10.46-2.23-15.7-3.11l-3.57,22a238.13,238.13,0,0,0-34.16-3.05h0c-4.49-.08-9,0-13.46.18l26.86,73.4a170.07,170.07,0,0,1,18.68,3.22C930.46,537,986.23,626.17,965.69,715.26,948,791.87,879.61,843.84,804.14,843.83a166,166,0,0,1-148.8-92.65H579.1c1.21,3.7,2.47,7.38,3.86,11l-22.72,8.66a263.48,263.48,0,0,0,22.68,45.47q5.93,9.48,12.57,18.32l19.4-14.59a239.18,239.18,0,0,0,34.28,36.75c4,3.5,8.22,6.91,12.45,10.12l-14.73,19.42a258.41,258.41,0,0,0,63.76,35.27l8.69-22.47a237.13,237.13,0,0,0,64.39,15l-2.13,23.8q11.32,1,22.55,1A258.9,258.9,0,0,0,854.23,934l-4.42-23.14a237.34,237.34,0,0,0,62.6-21.29l10.41,20.61a263,263,0,0,0,59.39-41.62l-15.57-16.77a240.37,240.37,0,0,0,41.85-51.29l19.34,11.74a259.57,259.57,0,0,0,28.25-66.63l-21.54-5.84A238.24,238.24,0,0,0,1042.79,674.13Z"/><path class="ec609e75-fa65-4930-940b-328e97c096c6" d="M803.81,727.41h2.44v-.12a48.69,48.69,0,0,0,42.69-67.1l1.18-.44L698.69,246.05l40.41-14.71-33.36-91.65-165,60-1.65,52.5,16.67,45.82,51.25-18.65L735.33,629.88H445.39v.06a50,50,0,0,0-48.77,49.93c0,.41.06.81.07,1.22h-.07c.07.68.11,1.36.17,2,0,.88.11,1.76.21,2.62a148.48,148.48,0,0,1-17.7,80.63,157.86,157.86,0,0,1-65.71,64.54,169.13,169.13,0,0,1-22.08,9.53,175.49,175.49,0,0,1-23.59,6.23,188.4,188.4,0,0,1-24.68,2.74,187.45,187.45,0,0,1-25-.93,174.26,174.26,0,0,1-93.37-40.68A182.9,182.9,0,0,1,67.4,717.74,192.19,192.19,0,0,1,70.18,606a200.6,200.6,0,0,1,67.59-95.19A216.6,216.6,0,0,1,163.06,494a213.2,213.2,0,0,1,27.79-13,217.41,217.41,0,0,1,29.7-8.83,232.08,232.08,0,0,1,31-4.42,235.08,235.08,0,0,0-31.62.2,215.84,215.84,0,0,0-62.35,14.48,230.43,230.43,0,0,0-29.31,14.18,226.2,226.2,0,0,0-89.62,96.3A234.91,234.91,0,0,0,17.17,727.68c6.24,46.65,27,92.09,59.38,128.4A251.28,251.28,0,0,0,201.64,932.2a273.19,273.19,0,0,0,37.27,6.72,281.08,281.08,0,0,0,38.1,1.2,271.19,271.19,0,0,0,38.27-4.46,266.24,266.24,0,0,0,163.3-102.81A274.51,274.51,0,0,0,517,761.58a277.61,277.61,0,0,0,9.82-34.17Z"/></svg>